<?xml version="1.0" encoding="UTF-8" standalone="no"?>
<!-- Created with Inkscape (http://www.inkscape.org/) -->

<svg
   xmlns:dc="http://purl.org/dc/elements/1.1/"
   xmlns:cc="http://creativecommons.org/ns#"
   xmlns:rdf="http://www.w3.org/1999/02/22-rdf-syntax-ns#"
   xmlns:svg="http://www.w3.org/2000/svg"
   xmlns="http://www.w3.org/2000/svg"
   xmlns:sodipodi="http://sodipodi.sourceforge.net/DTD/sodipodi-0.dtd"
   xmlns:inkscape="http://www.inkscape.org/namespaces/inkscape"
   width="1052.3622"
   height="744.09448"
   id="svg2"
   version="1.1"
   inkscape:version="0.48.4 r9939"
   sodipodi:docname="Neues Dokument 1">
  <defs
     id="defs4" />
  <sodipodi:namedview
     id="base"
     pagecolor="#ffffff"
     bordercolor="#666666"
     borderopacity="1.0"
     inkscape:pageopacity="0.0"
     inkscape:pageshadow="2"
     inkscape:zoom="0.7"
     inkscape:cx="918.57143"
     inkscape:cy="248.57143"
     inkscape:document-units="px"
     inkscape:current-layer="layer1"
     showgrid="false"
     inkscape:window-width="1680"
     inkscape:window-height="998"
     inkscape:window-x="-8"
     inkscape:window-y="-8"
     inkscape:window-maximized="1" />
  <metadata
     id="metadata7">
    <rdf:RDF>
      <cc:Work
         rdf:about="">
        <dc:format>image/svg+xml</dc:format>
        <dc:type
           rdf:resource="http://purl.org/dc/dcmitype/StillImage" />
        <dc:title></dc:title>
      </cc:Work>
    </rdf:RDF>
  </metadata>
  <g
     inkscape:label="Ebene 1"
     inkscape:groupmode="layer"
     id="layer1"
     transform="translate(0,-308.2677)">
    <rect
       style="fill:#00ff00;fill-opacity:1;stroke:none"
       id="rect2993"
       width="1031.4286"
       height="115.71429"
       x="8.5714283"
       y="16.951626"
       transform="translate(0,308.2677)" />
    <rect
       style="fill:#ffff00;fill-opacity:1;stroke:none"
       id="rect2995"
       width="100"
       height="574.28571"
       x="12.857142"
       y="146.95163"
       transform="translate(0,308.2677)" />
    <rect
       style="fill:#ffff00;fill-opacity:1;stroke:none"
       id="rect2997"
       width="358.57144"
       height="584.28571"
       x="141.42857"
       y="148.3802"
       transform="translate(0,308.2677)" />
    <rect
       style="fill:#ffff00;fill-opacity:1;stroke:none"
       id="rect2999"
       width="342.85715"
       height="584.28571"
       x="520"
       y="148.3802"
       transform="translate(0,308.2677)" />
    <rect
       style="fill:#ffff00;fill-opacity:1;stroke:none"
       id="rect3001"
       width="165.71428"
       height="584.28571"
       x="878.57141"
       y="149.80876"
       transform="translate(0,308.2677)" />
    <flowRoot
       xml:space="preserve"
       id="flowRoot3003"
       style="font-size:40px;font-style:normal;font-weight:normal;line-height:125%;letter-spacing:0px;word-spacing:0px;fill:#000000;fill-opacity:1;stroke:none;font-family:Sans"
       transform="translate(0,308.2677)"><flowRegion
         id="flowRegion3005"><rect
           id="rect3007"
           width="970"
           height="68.571426"
           x="27.142857"
           y="36.951626" /></flowRegion><flowPara
         id="flowPara3009">Header mit super fetziem Bild</flowPara></flowRoot>    <flowRoot
       xml:space="preserve"
       id="flowRoot3011"
       style="font-size:40px;font-style:normal;font-weight:normal;line-height:125%;letter-spacing:0px;word-spacing:0px;fill:#000000;fill-opacity:1;stroke:none;font-family:Sans"
       transform="translate(-11.428568,825.41055)"><flowRegion
         id="flowRegion3013"><rect
           id="rect3015"
           width="408.57144"
           height="152.85715"
           x="28.571428"
           y="165.52306" /></flowRegion><flowPara
         id="flowPara3017">Menü</flowPara></flowRoot>    <flowRoot
       xml:space="preserve"
       id="flowRoot3027"
       style="font-size:40px;font-style:normal;font-weight:normal;line-height:125%;letter-spacing:0px;word-spacing:0px;fill:#000000;fill-opacity:1;stroke:none;font-family:Sans"
       transform="translate(1095.7143,399.69627)"><flowRegion
         id="flowRegion3029"><rect
           id="rect3031"
           width="814.28571"
           height="488.57144"
           x="-567.14288"
           y="64.094482" /></flowRegion><flowPara
         id="flowPara3033">Feed</flowPara></flowRoot>    <flowRoot
       xml:space="preserve"
       id="flowRoot3035"
       style="font-size:40px;font-style:normal;font-weight:normal;line-height:125%;letter-spacing:0px;word-spacing:0px;fill:#000000;fill-opacity:1;stroke:none;font-family:Sans"
       transform="translate(-22.857142,-301.7323)"><flowRegion
         id="flowRegion3037"><rect
           id="rect3039"
           width="612.85712"
           height="111.42857"
           x="827.14288"
           y="759.80878" /></flowRegion><flowPara
         id="flowPara3041">Freundesliste</flowPara></flowRoot>    <rect
       style="fill:#de8787;fill-opacity:1;stroke:none"
       id="rect3043"
       width="341.42856"
       height="261.42856"
       x="152.85715"
       y="156.95163"
       transform="translate(0,308.2677)" />
    <path
       sodipodi:type="arc"
       style="fill:#ffffff;fill-opacity:1;stroke:none"
       id="path3045"
       sodipodi:cx="311.42856"
       sodipodi:cy="252.66591"
       sodipodi:rx="70"
       sodipodi:ry="54.285713"
       d="m 381.42856,252.66591 a 70,54.285713 0 1 1 -140,0 70,54.285713 0 1 1 140,0 z"
       transform="translate(0,308.2677)" />
    <flowRoot
       xml:space="preserve"
       id="flowRoot3019"
       style="font-size:40px;font-style:normal;font-weight:normal;line-height:125%;letter-spacing:0px;word-spacing:0px;fill:#000000;fill-opacity:1;stroke:none;font-family:Sans"
       transform="translate(81.428574,308.2677)"><flowRegion
         id="flowRegion3021"><rect
           id="rect3023"
           width="290"
           height="388.57144"
           x="74.285713"
           y="159.80876" /></flowRegion><flowPara
         id="flowPara3025">Schnellstart</flowPara></flowRoot>    <path
       style="fill:#000000;fill-opacity:1;stroke:none"
       id="path3047"
       d="m 275.03407,272.69016 c 4.91744,2.73531 9.93606,5.04624 15.23362,6.92741 4.11675,1.25854 8.25687,2.51931 12.50379,3.25987 4.37835,0.58782 8.80569,0.65046 13.21654,0.68673 3.86979,0.0319 7.7165,0.12646 11.55176,-0.4284 3.4161,-0.63445 6.42164,-1.69365 9.29168,-3.64371 3.30421,-2.20161 6.66075,-4.33255 10.12949,-6.2667 1.71036,-0.86883 3.24847,-2.0084 4.78699,-3.14124 0,0 2.35793,3.18247 2.35793,3.18247 l 0,0 c -1.67371,1.2471 -3.336,2.52901 -5.21097,3.46886 -3.38497,1.84054 -6.62501,3.92808 -9.82943,6.06494 -3.37992,2.27069 -6.95787,3.60857 -10.97229,4.31987 -4.03536,0.53935 -8.07993,0.45386 -12.14569,0.39108 -4.62055,-0.0568 -9.25041,-0.11541 -13.83944,-0.72464 -4.4817,-0.74233 -8.82988,-2.14921 -13.15277,-3.51727 -5.30046,-1.92749 -10.17481,-4.20663 -15.19919,-6.74533 0,0 1.27798,-3.83394 1.27798,-3.83394 z"
       inkscape:connector-curvature="0"
       transform="translate(0,308.2677)" />
    <path
       style="fill:#000000;fill-opacity:1;stroke:none"
       id="path3049"
       d="m 333.50939,231.27518 c 3.87473,1.24932 7.58833,2.91122 11.25847,4.65722 0,0 -1.63562,3.42155 -1.63562,3.42155 l 0,0 c -3.56729,-1.71399 -7.18793,-3.33014 -11.05038,-4.27202 0,0 1.42753,-3.80675 1.42753,-3.80675 z"
       inkscape:connector-curvature="0"
       transform="translate(0,308.2677)" />
    <path
       style="fill:#000000;fill-opacity:1;stroke:none"
       id="path3051"
       d="m 284.34723,231.84858 c -2.29532,0.0271 -4.54874,0.5197 -6.7971,0.92614 0,0 -0.70256,-3.82451 -0.70256,-3.82451 l 0,0 c 2.48667,-0.46388 4.96989,-1.01028 7.49966,-1.18126 0,0 0,4.07963 0,4.07963 z"
       inkscape:connector-curvature="0"
       transform="translate(0,308.2677)" />
    <rect
       style="fill:#000000;fill-opacity:1;stroke:none"
       id="rect3053"
       width="135.71428"
       height="40"
       x="157.14285"
       y="428.38019"
       transform="translate(0,308.2677)" />
    <rect
       style="fill:#000000;fill-opacity:1;stroke:none"
       id="rect3055"
       width="180"
       height="45.714287"
       x="311.42856"
       y="426.95163"
       transform="translate(0,308.2677)" />
    <flowRoot
       xml:space="preserve"
       id="flowRoot3057"
       style="font-size:20px;font-style:normal;font-weight:normal;line-height:125%;letter-spacing:0px;word-spacing:0px;fill:#ffffff;fill-opacity:1;stroke:none;font-family:Sans"
       transform="translate(845.71429,765.41055)"><flowRegion
         id="flowRegion3059"><rect
           id="rect3061"
           width="1014.2857"
           height="290"
           x="-685.71429"
           y="-17.334089"
           style="font-size:20px;fill:#ffffff" /></flowRegion><flowPara
         id="flowPara3063">Freundesmatch</flowPara></flowRoot>    <flowRoot
       xml:space="preserve"
       id="flowRoot3057-1"
       style="font-size:20px;font-style:normal;font-weight:normal;line-height:125%;letter-spacing:0px;word-spacing:0px;fill:#ffffff;fill-opacity:1;stroke:none;font-family:Sans"
       transform="translate(1008.9079,767.17833)"><flowRegion
         id="flowRegion3059-7"><rect
           id="rect3061-4"
           width="1014.2857"
           height="290"
           x="-685.71429"
           y="-17.334089"
           style="font-size:20px;fill:#ffffff" /></flowRegion><flowPara
         id="flowPara3063-0">Random Match</flowPara></flowRoot>    <rect
       style="fill:#ffffff;fill-opacity:1;stroke:none"
       id="rect3094"
       width="308.57144"
       height="502.85715"
       x="534.28571"
       y="214.09448"
       transform="translate(0,308.2677)" />
    <flowRoot
       xml:space="preserve"
       id="flowRoot3096"
       style="fill:black;stroke:none;stroke-opacity:1;stroke-width:1px;stroke-linejoin:miter;stroke-linecap:butt;fill-opacity:1;font-family:Sans;font-style:normal;font-weight:normal;font-size:20px;line-height:125%;letter-spacing:0px;word-spacing:0px"><flowRegion
         id="flowRegion3098"><rect
           id="rect3100"
           width="285.71429"
           height="428.57144"
           x="545.71429"
           y="236.95163"
           style="font-size:20px" /></flowRegion><flowPara
         id="flowPara3102"></flowPara></flowRoot>    <text
       xml:space="preserve"
       style="font-size:40px;font-style:normal;font-weight:normal;line-height:125%;letter-spacing:0px;word-spacing:0px;fill:#000000;fill-opacity:1;stroke:none;font-family:Sans"
       x="587.14288"
       y="264.09448"
       id="text3104"
       sodipodi:linespacing="125%"
       transform="translate(0,308.2677)"><tspan
         sodipodi:role="line"
         id="tspan3106"
         x="587.14288"
         y="264.09448" /></text>
    <flowRoot
       xml:space="preserve"
       id="flowRoot3108"
       style="font-size:40px;font-style:normal;font-weight:normal;line-height:125%;letter-spacing:0px;word-spacing:0px;fill:#000000;fill-opacity:1;stroke:none;font-family:Sans"
       transform="translate(1038.5714,409.69627)"><flowRegion
         id="flowRegion3110"><rect
           id="rect3112"
           width="284.28574"
           height="444.28568"
           x="-490"
           y="126.95162" /></flowRegion><flowPara
         id="flowPara3114"
         style="font-size:20px">Alles was Freunde so gemacht haben, Geschenke, Einladungen, evtl auch news zum spiel an sich</flowPara></flowRoot>    <rect
       style="fill:#ffffff;fill-opacity:1;stroke:none"
       id="rect3116"
       width="165.71428"
       height="28.571428"
       x="322.85715"
       y="382.66592"
       transform="translate(0,308.2677)" />
    <flowRoot
       xml:space="preserve"
       id="flowRoot3118"
       style="font-size:40px;font-style:normal;font-weight:normal;line-height:125%;letter-spacing:0px;word-spacing:0px;fill:#000000;fill-opacity:1;stroke:none;font-family:Sans"
       transform="translate(-868.57143,412.55341)"><flowRegion
         id="flowRegion3120"><rect
           id="rect3122"
           width="711.42859"
           height="225.71428"
           x="1194.2858"
           y="282.66592" /></flowRegion><flowPara
         id="flowPara3124"
         style="font-size:20px">Monster wechseln</flowPara></flowRoot>  </g>
</svg>
